<svg width="350" height="338" viewBox="0 0 350 338" fill="none" xmlns="http://www.w3.org/2000/svg">
<path d="M64.9751 241.335C64.9751 241.335 60.5034 236.998 55.8779 235.516C51.2524 234.033 45.9208 234.003 41.3133 232.611C36.7059 231.219 33.9541 230.047 33.9541 230.047L33.7188 234.654L64.785 243.939L86.039 237.429L88.1571 232.651C85.8412 233.844 83.4124 234.748 80.9156 235.345C76.29 236.557 71.1123 236.557 68.2429 237.779C65.3734 239.001 64.9751 241.335 64.9751 241.335Z" fill="white" stroke="#263238" stroke-linecap="round" stroke-linejoin="round"/>
<path d="M33.2836 231.089C39.3563 233.144 45.581 234.602 51.8854 235.446C56.6271 236.158 61.1294 238.183 64.9745 241.335C68.1022 239.123 71.7028 237.865 75.4114 237.689C79.872 237.315 84.2725 236.323 88.5095 234.734L87.1789 237.739L64.3499 242.687L32.8129 233.573L33.2836 231.089Z" fill="white" stroke="#263238" stroke-linecap="round" stroke-linejoin="round"/>
<path d="M32.424 232.13C37.249 234.176 42.3049 235.481 47.4502 236.007C55.8504 236.708 64.7394 241.335 64.7394 241.335C68.1775 239.416 71.9523 238.35 75.8009 238.21C80.12 238.169 84.4172 237.526 88.5913 236.297C88.4612 236.777 88.4287 237.282 88.496 237.778C88.5633 238.273 88.7287 238.745 88.9805 239.162L64.6579 244.891L32.261 234.474L32.424 232.13Z" fill="white" stroke="#263238" stroke-linecap="round" stroke-linejoin="round"/>
<path d="M32.0262 234.043L63.6446 242.808V244.009L66.3059 244.09V242.707L89.687 238.621C89.687 238.621 90.7099 238.36 89.8409 239.622C88.9719 240.884 73.9185 255.428 73.9185 255.428L57.2087 257.331L31.8632 251.171L32.0262 234.043Z" fill="#FFC735"/>
<path opacity="0.3" d="M63.6455 244.029V242.808L32.0271 234.043L31.8732 251.231L57.2096 257.391L57.6622 257.341L64.3515 244.05L63.6455 244.029Z" fill="black"/>
<path d="M32.0262 234.043L63.6446 242.808V244.009L66.3059 244.09V242.707L89.687 238.621C89.687 238.621 90.7099 238.36 89.8409 239.622C88.9719 240.884 73.9185 255.428 73.9185 255.428L57.2087 257.331L31.8632 251.171L32.0262 234.043Z" stroke="#263238" stroke-linecap="round" stroke-linejoin="round"/>
<path d="M63.6445 244.029L56.6564 257.391L57.9961 257.481L66.3057 244.11L63.6445 244.029Z" fill="#FFC735" stroke="#263238" stroke-linecap="round" stroke-linejoin="round"/>
<path d="M62.5218 325.491C62.5218 325.491 61.0011 329.017 58.9735 330.629C56.9459 332.242 54.357 333.003 52.3113 334.556C51.2001 335.388 50.136 336.294 49.125 337.27L48.3103 334.205L62.0149 323.758L73.3751 325.281L75.1312 328.206C73.8621 327.73 72.5405 327.447 71.2027 327.364C68.7677 327.174 66.2422 327.875 64.64 327.444C64.1784 327.312 63.7489 327.069 63.3826 326.731C63.0163 326.393 62.7223 325.97 62.5218 325.491V325.491Z" fill="white" stroke="#263238" stroke-linecap="round" stroke-linejoin="round"/>
<path d="M48.6274 336.659C51.2309 334.493 54.0529 332.667 57.0366 331.22C59.3434 329.963 61.2548 327.967 62.5221 325.491C64.2575 326.492 66.2393 326.843 68.1705 326.493C70.4439 326.147 72.7534 326.221 75.0047 326.713L73.8913 324.84L62.0152 324.64L48.0209 335.027L48.6274 336.659Z" fill="white" stroke="#263238" stroke-linecap="round" stroke-linejoin="round"/>
<path d="M48.0481 336.078C50.0292 334.101 52.3128 332.531 54.7918 331.441C58.7747 329.838 62.4136 325.521 62.4136 325.521C64.2787 326.328 66.3108 326.539 68.2792 326.132C70.4167 325.578 72.6239 325.433 74.8057 325.701C74.5317 325.08 74.446 324.378 74.5613 323.698L61.8343 323.137L47.6136 334.526L48.0481 336.078Z" fill="white" stroke="#263238" stroke-linecap="round" stroke-linejoin="round"/>
<path d="M47.532 334.846L61.6168 324.67L61.4267 323.859L62.7212 323.438L62.9294 324.369L74.9503 323.969C74.9503 323.969 75.4844 323.969 74.8689 323.248C74.2533 322.526 64.7307 314.744 64.7307 314.744L56.2852 315.745L44.8617 323.308L47.532 334.846Z" fill="#FFC735"/>
<path opacity="0.3" d="M61.4631 323.859L61.6531 324.67L47.5683 334.846L44.8708 323.278L56.2944 315.715L56.5207 315.685L61.807 323.748L61.4631 323.859Z" fill="black"/>
<path d="M47.532 334.846L61.6168 324.67L61.4267 323.859L62.7212 323.438L62.9294 324.369L74.9503 323.969C74.9503 323.969 75.4844 323.969 74.8689 323.248C74.2533 322.526 64.7307 314.744 64.7307 314.744L56.2852 315.745L44.8617 323.308L47.532 334.846Z" stroke="#263238" stroke-linecap="round" stroke-linejoin="round"/>
<path d="M61.4629 323.858L56.0317 315.785L56.6654 315.545L62.7573 323.438L61.4629 323.858Z" fill="#FFC735" stroke="#263238" stroke-linecap="round" stroke-linejoin="round"/>
<path d="M273.124 217.677L298.687 246.323L244.104 263.341L240.492 234.624L273.124 217.677Z" fill="#FFC735" stroke="#263238" stroke-linecap="round" stroke-linejoin="round"/>
<path d="M295.745 250.46L239.288 268.82L243.841 235.806L272.328 221.743L295.745 250.46Z" fill="white" stroke="#263238" stroke-linecap="round" stroke-linejoin="round"/>
<path d="M273.668 223.526L294.668 253.575L241.696 270.592L247.852 234.474L273.668 223.526Z" fill="white"/>
<path opacity="0.17" d="M273.668 223.526L294.668 253.575L241.696 270.592L247.852 234.474L273.668 223.526Z" fill="black"/>
<path d="M273.668 223.526L294.668 253.575L241.696 270.592L247.852 234.474L273.668 223.526Z" stroke="#263238" stroke-linecap="round" stroke-linejoin="round"/>
<path d="M273.668 223.526L264.036 260.526L226.444 273.117L240.89 239.061L273.668 223.526Z" fill="white" stroke="#263238" stroke-linecap="round" stroke-linejoin="round"/>
<path d="M261.366 257.571L225.113 271.043L224.036 265.414L257.618 252.093L261.366 257.571Z" fill="white" stroke="#263238" stroke-linecap="round" stroke-linejoin="round"/>
<path d="M272.735 218.488L296.813 246.173L295.745 250.46L273.668 223.526L261.366 257.571L257.618 252.093L272.735 218.488Z" fill="white" stroke="#263238" stroke-linecap="round" stroke-linejoin="round"/>
<path d="M273.125 217.677L257.754 253.134L222.298 266.456L240.492 234.624L273.125 217.677Z" fill="#FFC735"/>
<path opacity="0.3" d="M273.125 217.677L257.754 253.134L222.298 266.456L240.492 234.624L273.125 217.677Z" fill="black"/>
<path d="M273.125 217.677L257.754 253.134L222.298 266.456L240.492 234.624L273.125 217.677Z" stroke="#263238" stroke-linecap="round" stroke-linejoin="round"/>
<path d="M239.026 237.89L267.549 223.486" stroke="#263238" stroke-linecap="round" stroke-linejoin="round"/>
<path d="M154.363 320.613L180.541 284.976L126.537 282.171L122.238 312.11L154.363 320.613Z" fill="#FFC735" stroke="#263238" stroke-linecap="round" stroke-linejoin="round"/>
<path d="M177.708 281.57L121.867 277.914L125.596 310.036L153.666 316.727L177.708 281.57Z" fill="white" stroke="#263238" stroke-linecap="round" stroke-linejoin="round"/>
<path d="M155.042 314.574L176.712 278.706L124.311 275.48L129.57 310.317L155.042 314.574Z" fill="white"/>
<path opacity="0.17" d="M155.042 314.574L176.712 278.706L124.311 275.48L129.57 310.317L155.042 314.574Z" fill="black"/>
<path d="M155.042 314.574L176.712 278.706L124.311 275.48L129.57 310.317L155.042 314.574Z" stroke="#263238" stroke-linecap="round" stroke-linejoin="round"/>
<path d="M155.042 314.574L146.343 279.757L109.167 276.963L122.745 307.522L155.042 314.574Z" fill="white" stroke="#263238" stroke-linecap="round" stroke-linejoin="round"/>
<path d="M143.6 283.453L107.782 279.407L106.578 285.366L139.735 289.964L143.6 283.453Z" fill="white" stroke="#263238" stroke-linecap="round" stroke-linejoin="round"/>
<path d="M153.983 319.902L178.668 285.617L177.708 281.57L155.042 314.574L143.6 283.453L139.735 289.964L153.983 319.902Z" fill="white" stroke="#263238" stroke-linecap="round" stroke-linejoin="round"/>
<path d="M154.363 320.613L139.889 288.882L104.867 284.775L122.238 312.11L154.363 320.613Z" fill="#FFC735"/>
<path opacity="0.3" d="M154.363 320.613L139.889 288.882L104.867 284.775L122.238 312.11L154.363 320.613Z" fill="black"/>
<path d="M154.363 320.613L139.889 288.882L104.867 284.775L122.238 312.11L154.363 320.613Z" stroke="#263238" stroke-linecap="round" stroke-linejoin="round"/>
<path d="M119.568 308.163L148.09 314.804" stroke="#263238" stroke-linecap="round" stroke-linejoin="round"/>
<path d="M175.59 80.976C175.59 80.976 163.732 87.3162 158.989 94.9987C154.245 102.681 155.63 116.864 162.935 121.451C170.24 126.039 195.74 142.886 213.726 140.482C231.712 138.078 228.942 117.735 219.854 109.642C210.766 101.549 198.509 94.3376 198.509 94.3376C198.509 94.3376 197.921 89.9705 197.124 88.4381C196.328 86.9056 187.249 77.0396 175.59 80.976Z" fill="#263238" stroke="#263238" stroke-linecap="round" stroke-linejoin="round"/>
<path d="M223.728 114.43C196.808 105.315 179.075 121.632 173.517 127.882C184.651 134.282 201.053 142.145 213.726 140.452C228.77 138.439 229.286 123.865 223.728 114.43Z" fill="white" stroke="#263238" stroke-linecap="round" stroke-linejoin="round"/>
<path d="M205.425 112.026C205.425 112.026 221.239 126.049 215.699 140.011" stroke="#263238" stroke-linecap="round" stroke-linejoin="round"/>
<path d="M153.521 74.8661L147.185 107.569H152.281L164.845 81.7973C164.845 81.7973 162.392 73.534 153.521 74.8661Z" fill="white" stroke="#263238" stroke-linecap="round" stroke-linejoin="round"/>
<path d="M233.16 59.0005C227.974 51.9892 221.121 45.4887 208.566 44.3769C208.566 44.3769 197.867 44.0063 183.311 50.8573C171.933 56.206 159.776 67.8849 153.521 74.8962C159.115 76.4687 162.447 79.0028 164.854 81.8274C167.335 79.2132 169.498 76.9395 171.091 75.5072C176.45 70.6894 184.316 66.6228 184.316 66.6228C184.316 66.6228 175.78 79.5737 174.105 82.9091C172.431 86.2445 173.608 91.6132 182.469 93.0956C191.331 94.578 193.513 92.725 197.025 90.5014C200.537 88.2778 204.891 86.2445 206.566 86.2445C209.912 86.507 213.234 85.4417 215.935 83.2397C220.279 79.9043 222.126 70.469 223.629 69.7278C224.661 69.217 233.794 82.3983 240.909 92.2943L241.524 91.9437C244.62 90.1809 247.037 86.5851 248.693 83.42C242.936 74.1149 236.519 63.5478 233.16 59.0005Z" fill="#FFC735" stroke="#263238" stroke-linecap="round" stroke-linejoin="round"/>
<path d="M203.171 50.5969C203.171 50.5969 199.623 60.0422 206.729 63.6179" stroke="#263238" stroke-linecap="round" stroke-linejoin="round"/>
<path d="M184.316 66.5928L192.028 64.0687" stroke="#263238" stroke-linecap="round" stroke-linejoin="round"/>
<path d="M184.216 83.0694C184.216 83.0694 189.077 87.8171 200.456 82.4484" stroke="#263238" stroke-linecap="round" stroke-linejoin="round"/>
<path d="M228.616 66.132C225.81 66.5427 223.629 69.7378 223.629 69.7378C226.867 68.9746 230.159 68.5288 233.468 68.4057" stroke="#263238" stroke-linecap="round" stroke-linejoin="round"/>
<path d="M184.569 67.374C184.569 67.374 189.792 67.374 194.834 67.1637" stroke="#263238" stroke-linecap="round" stroke-linejoin="round"/>
<path d="M187.367 80.5854C187.367 80.5854 187.928 84.3114 195.206 83.8907" stroke="#263238" stroke-linecap="round" stroke-linejoin="round"/>
<path d="M206.729 47.5219C206.729 47.5219 205.561 54.1827 206.394 57.6984C207.226 61.2141 210.241 65.2907 212.422 61.0338C214.604 56.7769 215.762 52.0192 215.762 49.7455C215.762 47.4719 208.231 43.2651 206.729 47.5219Z" fill="white" stroke="#263238" stroke-linecap="round" stroke-linejoin="round"/>
<path d="M223.629 39.1885C223.629 39.1885 228.308 38.0767 232.327 32.3374C236.347 26.5981 231.16 25.8669 229.485 20.318C227.811 14.769 233.703 16.612 225.176 6.98644C216.65 -2.63912 202.755 0.696272 196.21 3.84135C189.666 6.98644 189.874 17.5435 185.176 18.2847C180.478 19.0259 178.477 14.0278 172.793 14.0278C167.108 14.0278 161.08 20.6886 163.424 26.2375C165.769 31.7865 170.285 29.3926 170.62 28.4611C170.955 27.5296 168.276 28.6514 168.104 25.8669C167.932 23.0824 174.124 24.5749 175.97 28.2809C177.464 31.2857 174.721 35.5526 174.811 38.7077C175.002 45.0379 182.008 49.0845 186.507 49.9559C192.58 51.1278 199.967 50.7171 205.47 47.3817C212.232 43.2751 209.091 34.7613 214.07 32.5377C219.048 30.3141 221.601 33.6495 221.601 33.6495L223.629 39.1885Z" fill="#263238" stroke="#263238" stroke-linecap="round" stroke-linejoin="round"/>
<path d="M172.494 17.4634C171.632 17.0489 170.684 16.9054 169.753 17.0486C168.822 17.1917 167.944 17.6159 167.217 18.2747" stroke="white" stroke-linecap="round" stroke-linejoin="round"/>
<path d="M217.139 22.6517C217.139 22.6517 217.138 11.6339 210.15 9.39031C203.162 7.14668 195.178 17.1228 191.141 23.413C187.104 29.7031 181.184 28.2007 176.83 21.57C176.421 20.9308 175.967 20.328 175.472 19.7671" stroke="white" stroke-linecap="round" stroke-linejoin="round"/>
<path d="M177.536 43.3152C181.157 45.8893 183.873 46.6305 189.186 44.7875C194.5 42.9446 193.848 33.3691 198.501 28.2208C203.153 23.0724 211.481 24.9054 211.481 24.9054C211.481 24.9054 202.167 19.3765 194.844 25.266C187.521 31.1555 188.181 41.1016 181.528 42.9446" stroke="white" stroke-linecap="round" stroke-linejoin="round"/>
<path d="M221.8 23.7936C221.8 23.7936 228.136 21.9506 227.792 15.6905" stroke="white" stroke-linecap="round" stroke-linejoin="round"/>
<path d="M169.661 94.7683C169.661 94.7683 186.86 97.1722 195.549 103.783" stroke="white" stroke-linecap="round" stroke-linejoin="round"/>
<path d="M218.17 26.1774C217.099 25.8375 215.962 25.8456 214.895 26.2008C213.827 26.5559 212.875 27.2432 212.151 28.1807C209.309 31.506 209.435 33.1888 207.064 35.2621C206.356 35.9464 205.465 36.3535 204.527 36.4205C203.589 36.4875 202.658 36.2106 201.877 35.6327C200.872 35.0818 199.704 35.4524 199.37 38.0366C199.035 40.6208 202.212 42.6641 202.719 42.6641C203.223 42.6944 203.724 42.7579 204.221 42.8544C204.221 42.8544 204.221 47.4819 207.064 50.2564C209.906 53.0308 215.6 57.478 219.447 56.5565C223.294 55.6351 224.796 45.8192 224.796 40.8211C224.656 35.7533 223.753 30.7469 222.126 26.0072C220.949 23.0824 218.17 26.1774 218.17 26.1774Z" fill="white" stroke="#263238" stroke-linecap="round" stroke-linejoin="round"/>
<path d="M214.993 37.4256C214.993 38.4272 214.667 39.2886 214.251 39.2886C213.834 39.2886 213.5 38.4573 213.5 37.4256C213.5 36.3939 213.834 35.5726 214.251 35.5726C214.667 35.5726 214.993 36.404 214.993 37.4256Z" fill="#263238"/>
<path d="M220.958 36.8046C220.958 37.8062 220.623 38.6676 220.216 38.6676C219.809 38.6676 219.465 37.8363 219.465 36.8046C219.465 35.7729 219.8 34.9516 220.216 34.9516C220.632 34.9516 220.958 35.783 220.958 36.8046Z" fill="#263238"/>
<path d="M211.445 33.6695C211.445 33.6695 212.558 31.8166 215.364 32.6679" stroke="#263238" stroke-linecap="round" stroke-linejoin="round"/>
<path d="M218.532 32.6679C218.532 32.6679 220.397 30.3943 222.081 32.6679" stroke="#263238" stroke-linecap="round" stroke-linejoin="round"/>
<path d="M218.351 36.8046C218.351 36.8046 218.532 40.9413 219.655 40.9413C220.777 40.9413 220.397 42.7943 218.904 43.4153" stroke="#263238" stroke-linecap="round" stroke-linejoin="round"/>
<path d="M217.41 47.552C217.41 47.552 214.052 49.2047 212.748 45.4786" stroke="#263238" stroke-linecap="round" stroke-linejoin="round"/>
<path d="M218.197 138.98C218.197 138.98 199.188 120.53 179.491 114.25C159.794 107.97 137.128 110.924 117.44 105.025C97.7522 99.1253 86.4192 91.0022 86.4192 91.0022L85.4144 110.564L217.573 150.068L307.984 122.383L316.99 102.08C316.99 102.08 305.983 108.35 286.295 113.519C266.607 118.687 244.548 118.677 232.192 123.815C219.836 128.954 218.197 138.98 218.197 138.98Z" fill="white" stroke="#263238" stroke-linecap="round" stroke-linejoin="round"/>
<path d="M83.4141 95.4193C83.4141 95.4193 105.465 110.193 155.142 115.362C187.864 118.757 218.197 138.98 218.197 138.98C231.489 129.576 246.791 124.227 262.552 123.475C288.576 122.373 318.267 110.924 318.267 110.924L312.609 123.815L215.527 144.849L81.4136 106.087L83.4141 95.4193Z" fill="white" stroke="#263238" stroke-linecap="round" stroke-linejoin="round"/>
<path d="M79.7481 99.8565C98.5156 109.236 118.603 114.969 139.129 116.804C174.821 119.759 217.193 138.95 217.193 138.95C217.193 138.95 239.542 125.668 264.263 125.668C282.624 125.495 300.893 122.766 318.638 117.545C318.086 119.585 317.949 121.736 318.237 123.841C318.525 125.947 319.231 127.956 320.303 129.725L216.858 154.114L79.0782 109.793L79.7481 99.8565Z" fill="white" stroke="#263238" stroke-linecap="round" stroke-linejoin="round"/>
<path d="M80.4179 108.621L212.522 145.26V150.428L223.864 150.799V144.849L323.281 127.501C323.281 127.501 327.617 126.389 323.951 131.928C320.285 137.467 256.225 199.117 256.225 199.117L185.167 207.24L77.4036 181.068L78.0463 110.644C78.0483 110.325 78.116 110.01 78.2442 109.724C78.3724 109.438 78.5579 109.188 78.7864 108.993C79.015 108.798 79.2807 108.663 79.5634 108.598C79.846 108.534 80.1382 108.542 80.4179 108.621Z" fill="#B4D51E"/>
<path opacity="0.3" d="M212.523 150.428V145.26L78.0744 107.98L77.4136 181.068L185.168 207.28L187.096 207.06L215.537 150.528L212.523 150.428Z" fill="black"/>
<path d="M80.4179 108.621L212.522 145.26V150.428L223.864 150.799V144.849L323.281 127.501C323.281 127.501 327.617 126.389 323.951 131.928C320.285 137.467 256.225 199.117 256.225 199.117L185.167 207.24L77.4036 181.068L78.0463 110.644C78.0483 110.325 78.116 110.01 78.2442 109.724C78.3724 109.438 78.5579 109.188 78.7864 108.993C79.015 108.798 79.2807 108.663 79.5634 108.598C79.846 108.534 80.1382 108.542 80.4179 108.621Z" stroke="#263238" stroke-linecap="round" stroke-linejoin="round"/>
<path d="M212.522 150.428L182.832 207.28L188.507 207.641L223.864 150.799L212.522 150.428Z" fill="#B4D51E" stroke="#263238" stroke-linecap="round" stroke-linejoin="round"/>
<path d="M311.614 129.825C311.614 129.825 320.475 131.658 318.629 138.198L323.951 131.948C323.951 131.948 326.386 128.593 325.273 127.942C324.16 127.291 311.614 129.825 311.614 129.825Z" fill="#263238"/>
<path d="M92.6645 112.337C92.6645 112.337 80.1275 116.173 78.1814 126.54L78.0728 110.644C78.0728 110.644 78.4529 108.25 80.4353 108.641C82.4177 109.031 92.6645 112.337 92.6645 112.337Z" fill="#263238"/>
<path d="M77.5313 176.2L83.8314 182.841L77.4136 181.068L77.5313 176.2Z" fill="#263238"/>
<path d="M251.69 199.588L260.235 194.94L255.736 199.257L251.69 199.588Z" fill="#263238"/>
<path d="M248.694 83.43L272.736 115.322L266.68 116.383L240.909 92.3444C240.909 92.3444 247.58 87.5066 248.694 83.43Z" fill="white" stroke="#263238" stroke-linecap="round" stroke-linejoin="round"/>
<path d="M142.08 104.644C142.08 104.644 140.876 103.032 140.568 104.474C140.26 105.916 137.536 110.924 139.663 111.275C141.79 111.626 142.994 105.906 142.994 105.906L142.08 104.644Z" fill="white" stroke="#263238" stroke-linecap="round" stroke-linejoin="round"/>
<path d="M144.958 104.454C144.958 104.454 143.745 102.841 143.446 104.274C143.148 105.706 140.414 110.724 142.541 111.085C144.668 111.445 145.881 105.706 145.881 105.706L144.958 104.454Z" fill="white" stroke="#263238" stroke-linecap="round" stroke-linejoin="round"/>
<path d="M147.846 104.334C147.846 104.334 146.406 102.541 146.035 104.133C145.664 105.726 142.415 111.295 144.958 111.696C147.502 112.096 148.914 105.686 148.914 105.686L147.846 104.334Z" fill="white" stroke="#263238" stroke-linecap="round" stroke-linejoin="round"/>
<path d="M150.362 104.935L155.214 110.103H149.466L150.362 104.935Z" fill="white" stroke="#263238" stroke-linecap="round" stroke-linejoin="round"/>
<path d="M150.362 104.935C150.362 104.935 148.923 103.142 148.552 104.734C148.181 106.327 144.931 111.896 147.475 112.287C150.018 112.677 151.43 106.277 151.43 106.277L150.362 104.935Z" fill="white" stroke="#263238" stroke-linecap="round" stroke-linejoin="round"/>
<path d="M279.262 109.572C279.262 109.572 280.231 107.769 280.737 109.132C281.244 110.494 284.639 114.981 282.602 115.702C280.565 116.423 278.547 110.974 278.547 110.974L279.262 109.572Z" fill="white" stroke="#263238" stroke-linecap="round" stroke-linejoin="round"/>
<path d="M276.419 109.873C276.419 109.873 277.388 108.07 277.895 109.432C278.402 110.794 281.805 115.281 279.76 116.003C277.714 116.724 275.704 111.275 275.704 111.275L276.419 109.873Z" fill="white" stroke="#263238" stroke-linecap="round" stroke-linejoin="round"/>
<path d="M273.559 110.263C273.559 110.263 274.727 108.26 275.306 109.753C275.885 111.245 279.832 116.203 277.442 117.034C275.053 117.866 272.69 111.826 272.69 111.826L273.559 110.263Z" fill="white" stroke="#263238" stroke-linecap="round" stroke-linejoin="round"/>
<path d="M271.16 111.295L267.096 117.245L272.781 116.243L271.16 111.295Z" fill="white" stroke="#263238" stroke-linecap="round" stroke-linejoin="round"/>
<path d="M271.16 111.295C271.16 111.295 272.319 109.292 272.907 110.784C273.496 112.277 277.433 117.225 275.044 118.056C272.654 118.887 270.291 112.858 270.291 112.858L271.16 111.295Z" fill="white" stroke="#263238" stroke-linecap="round" stroke-linejoin="round"/>
<path d="M106.252 164.791L112.045 163.79L106.252 162.788C105.742 162.703 105.27 162.439 104.905 162.035C104.54 161.631 104.302 161.109 104.224 160.545L103.319 154.124L102.414 160.545C102.337 161.108 102.1 161.629 101.737 162.032C101.374 162.436 100.904 162.701 100.395 162.788L94.593 163.79L100.395 164.791C100.902 164.883 101.37 165.15 101.732 165.552C102.095 165.955 102.333 166.474 102.414 167.035L103.319 173.455L104.224 167.035C104.306 166.472 104.545 165.953 104.909 165.55C105.274 165.147 105.743 164.881 106.252 164.791V164.791Z" fill="white"/>
<path d="M62.9745 208.282L68.7768 207.28L62.9745 206.278C62.4665 206.187 61.9974 205.921 61.6335 205.519C61.2697 205.116 61.0294 204.597 60.9468 204.035L60.0416 197.614L59.1364 204.035C59.0578 204.599 58.8189 205.12 58.4543 205.524C58.0897 205.927 57.6184 206.191 57.1088 206.278L51.3065 207.28L57.1088 208.282C57.6184 208.369 58.0897 208.633 58.4543 209.037C58.8189 209.44 59.0578 209.961 59.1364 210.525L60.0416 216.946L60.9468 210.525C61.0294 209.963 61.2697 209.444 61.6335 209.042C61.9974 208.639 62.4665 208.373 62.9745 208.282V208.282Z" fill="#463C74"/>
<path opacity="0.5" d="M62.9745 208.282L68.7768 207.28L62.9745 206.278C62.4665 206.187 61.9974 205.921 61.6335 205.519C61.2697 205.116 61.0294 204.597 60.9468 204.035L60.0416 197.614L59.1364 204.035C59.0578 204.599 58.8189 205.12 58.4543 205.524C58.0897 205.927 57.6184 206.191 57.1088 206.278L51.3065 207.28L57.1088 208.282C57.6184 208.369 58.0897 208.633 58.4543 209.037C58.8189 209.44 59.0578 209.961 59.1364 210.525L60.0416 216.946L60.9468 210.525C61.0294 209.963 61.2697 209.444 61.6335 209.042C61.9974 208.639 62.4665 208.373 62.9745 208.282V208.282Z" fill="white"/>
<path d="M207.443 235.055L213.246 234.053L207.443 233.052C206.935 232.965 206.465 232.702 206.1 232.301C205.736 231.899 205.496 231.38 205.416 230.818L204.511 224.398L203.605 230.818C203.525 231.38 203.285 231.899 202.921 232.301C202.556 232.702 202.086 232.965 201.578 233.052L195.775 234.053L201.578 235.055C202.086 235.141 202.556 235.404 202.921 235.806C203.285 236.207 203.525 236.727 203.605 237.289L204.511 243.709L205.416 237.289C205.496 236.727 205.736 236.207 206.1 235.806C206.465 235.404 206.935 235.141 207.443 235.055Z" fill="#463C74"/>
<path opacity="0.5" d="M207.443 235.055L213.246 234.053L207.443 233.052C206.935 232.965 206.465 232.702 206.1 232.301C205.736 231.899 205.496 231.38 205.416 230.818L204.511 224.398L203.605 230.818C203.525 231.38 203.285 231.899 202.921 232.301C202.556 232.702 202.086 232.965 201.578 233.052L195.775 234.053L201.578 235.055C202.086 235.141 202.556 235.404 202.921 235.806C203.285 236.207 203.525 236.727 203.605 237.289L204.511 243.709L205.416 237.289C205.496 236.727 205.736 236.207 206.1 235.806C206.465 235.404 206.935 235.141 207.443 235.055Z" fill="white"/>
<path d="M55.552 174.127L59.39 173.455L55.552 172.784C55.2153 172.727 54.9038 172.552 54.6629 172.286C54.422 172.019 54.2642 171.675 54.2123 171.302L53.6149 167.065L53.0084 171.302C52.9565 171.675 52.7987 172.019 52.5578 172.286C52.3169 172.552 52.0054 172.727 51.6687 172.784L47.8307 173.455L51.6687 174.127C52.0054 174.184 52.3169 174.359 52.5578 174.625C52.7987 174.892 52.9565 175.236 53.0084 175.609L53.6149 179.846L54.2123 175.609C54.2642 175.236 54.422 174.892 54.6629 174.625C54.9038 174.359 55.2153 174.184 55.552 174.127V174.127Z" fill="#463C74"/>
<path opacity="0.5" d="M55.552 174.127L59.39 173.455L55.552 172.784C55.2153 172.727 54.9038 172.552 54.6629 172.286C54.422 172.019 54.2642 171.675 54.2123 171.302L53.6149 167.065L53.0084 171.302C52.9565 171.675 52.7987 172.019 52.5578 172.286C52.3169 172.552 52.0054 172.727 51.6687 172.784L47.8307 173.455L51.6687 174.127C52.0054 174.184 52.3169 174.359 52.5578 174.625C52.7987 174.892 52.9565 175.236 53.0084 175.609L53.6149 179.846L54.2123 175.609C54.2642 175.236 54.422 174.892 54.6629 174.625C54.9038 174.359 55.2153 174.184 55.552 174.127V174.127Z" fill="white"/>
<path d="M304.535 183.502L308.373 182.841L304.535 182.17C304.198 182.111 303.888 181.936 303.647 181.669C303.406 181.403 303.248 181.059 303.195 180.687L302.588 176.44L301.991 180.687C301.938 181.059 301.78 181.403 301.539 181.669C301.298 181.936 300.988 182.111 300.651 182.17L296.813 182.841L300.651 183.502C300.988 183.561 301.298 183.736 301.539 184.002C301.78 184.268 301.938 184.612 301.991 184.984L302.588 189.231L303.195 184.984C303.248 184.612 303.406 184.268 303.647 184.002C303.888 183.736 304.198 183.561 304.535 183.502Z" fill="#463C74"/>
<path opacity="0.5" d="M304.535 183.502L308.373 182.841L304.535 182.17C304.198 182.111 303.888 181.936 303.647 181.669C303.406 181.403 303.248 181.059 303.195 180.687L302.588 176.44L301.991 180.687C301.938 181.059 301.78 181.403 301.539 181.669C301.298 181.936 300.988 182.111 300.651 182.17L296.813 182.841L300.651 183.502C300.988 183.561 301.298 183.736 301.539 184.002C301.78 184.268 301.938 184.612 301.991 184.984L302.588 189.231L303.195 184.984C303.248 184.612 303.406 184.268 303.647 184.002C303.888 183.736 304.198 183.561 304.535 183.502Z" fill="white"/>
<path d="M129.135 148.205L132.892 147.554L129.135 146.903C128.805 146.845 128.501 146.674 128.265 146.413C128.029 146.152 127.874 145.815 127.823 145.45L127.225 141.283L126.637 145.45C126.584 145.814 126.429 146.151 126.193 146.411C125.957 146.672 125.653 146.844 125.324 146.903L121.559 147.554L125.324 148.205C125.653 148.263 125.957 148.435 126.193 148.696C126.429 148.957 126.584 149.293 126.637 149.657L127.189 153.864L127.786 149.697C127.833 149.319 127.99 148.969 128.233 148.699C128.477 148.43 128.794 148.256 129.135 148.205V148.205Z" fill="white"/>
<path d="M253.59 189.331L257.356 188.67L253.59 188.019C253.261 187.96 252.957 187.789 252.722 187.528C252.486 187.267 252.331 186.931 252.278 186.567L251.689 182.4L251.101 186.567C251.048 186.931 250.893 187.267 250.657 187.528C250.422 187.789 250.118 187.96 249.789 188.019L246.023 188.67L249.789 189.331C250.118 189.388 250.423 189.56 250.659 189.821C250.895 190.082 251.05 190.419 251.101 190.783L251.689 194.94L252.278 190.783C252.329 190.419 252.484 190.082 252.72 189.821C252.956 189.56 253.261 189.388 253.59 189.331Z" fill="white"/>
</svg>
